# AST/ASF file generated using VICON BodyLanguage
# -----------------------------------------------
:version 1.10
:name VICON
:units
  mass 1.0
  length 0.45
  angle deg
:documentation
   .ast/.asf automatically generated from VICON data using
   VICON BodyBuilder and BodyLanguage model FoxedUp or BRILLIANT.MOD
:root
   order TX TY TZ RX RY RZ
   axis XYZ
   position 0 0 0  
   orientation 0 0 0 
:bonedata
  begin
     id 1 
     name lhipjoint
     direction 0.602128 -0.715006 0.355257 
     length 2.21237 
     axis 0 0 0  XYZ
  end
  begin
     id 2 
     name lfemur
     direction 0.34202 -0.939693 0  
     length 6.71649  
     axis 0 0 20  XYZ
    dof rx ry rz
    limits (-160.0 20.0)
           (-70.0 70.0)
           (-60.0 70.0)
  end
  begin
     id 3 
     name ltibia
     direction 0.34202 -0.939693 0   
     length 6.97123   
     axis 0 0 20   XYZ
    dof rx
    limits (-10.0 170.0)
  end
  begin
     id 4 
     name lfoot
     direction 0.0655697 -0.180151 0.981451   
     length 1.80924   
     axis -90 7.62852e-016 20   XYZ
    dof rx rz
    limits (-45.0 90.0)
           (-70.0 20.0)
  end
  begin
     id 5 
     name ltoes
     direction 1.53545e-011 -4.21827e-011 1   
     length 0.916331   
     axis -90 7.62852e-016 20   XYZ
    dof rx
    limits (-90.0 20.0)
  end
  begin
     id 6 
     name rhipjoint
     direction -0.625414 -0.698792 0.347201   
     length 2.2637  
     axis 0 0 0  XYZ 
  end
  begin
     id 7 
     name rfemur
     direction -0.34202 -0.939693 0   
     length 7.07595   
     axis 0 0 -20   XYZ
    dof rx ry rz
    limits (-160.0 20.0)
           (-70.0 70.0)
           (-70.0 60.0)
  end
  begin
     id 8 
     name rtibia
     direction -0.34202 -0.939693 0   
     length 7.22924   
     axis 0 0 -20   XYZ
    dof rx
    limits (-10.0 170.0)
 end
 begin
     id 9 
     name rfoot
     direction -0.0766747 -0.210662 0.974547   
     length 1.98482  
     axis -90 -7.62852e-016 -20   XYZ
    dof rx rz
    limits (-45.0 90.0)
           (-20.0 70.0)
  end
  begin
     id 10 
     name rtoes
     direction -1.53532e-011 -4.21867e-011 1   
     length 0.999842   
     axis -90 -7.62852e-016 -20   XYZ
    dof rx
    limits (-90.0 20.0)
  end
  begin
     id 11 
     name lowerback
     direction -0.0224668 0.997354 -0.0691422   
     length 2.09945   
     axis 0 0 0   XYZ
    dof rx ry rz
    limits (-20.0 45.0)
           (-30.0 30.0)
           (-30.0 30.0)
  end
  begin
     id 12 
     name upperback
     direction 0.0134698 0.998451 -0.0539888   
     length 2.09758   
     axis 0 0 0   XYZ
    dof rx ry rz
    limits (-20.0 45.0)
           (-30.0 30.0)
           (-30.0 30.0)
  end
  begin
     id 13 
     name thorax
     direction 0.0241905 0.99948 -0.0213333   
     length 2.10428   
     axis 0 0 0   XYZ
    dof rx ry rz
    limits (-20.0 45.0)
           (-30.0 30.0)
           (-30.0 30.0)
  end
  begin
     id 14 
     name lowerneck
     direction -0.00866847 0.995978 0.0891737   
     length 1.3959   
     axis 0 0 0   XYZ
    dof rx ry rz
    limits (-20.0 45.0)
           (-30.0 30.0)
           (-30.0 30.0)
  end
  begin
     id 15 
     name upperneck
     direction 0.0680679 0.992203 0.104404   
     length 1.39452   
     axis 0 0 0   XYZ
    dof rx ry rz
    limits (-20.0 45.0)
           (-30.0 30.0)
           (-30.0 30.0)
  end
  begin
     id 16
     name head
     direction 0.0242216 0.999358 0.0264054  
     length 1.40433  
     axis 0 0 0   XYZ
    dof rx ry rz
    limits (-20.0 45.0)
           (-30.0 30.0)
           (-30.0 30.0)
  end
  begin
     id 17 
     name lclavicle
     direction 0.929368 0.362991 -0.0671771  
     length 3.04887  
     axis 0 0 0   XYZ
    dof ry rz
    limits (-20.0 10.0)
           (0.0 20.0)
  end
  begin
     id 18 
     name lhumerus
     direction 1 -4.48967e-011 -7.13741e-028   
     length 4.77195   
     axis -180 -30 -90   XYZ
    dof rx ry rz
    limits (-60.0 90.0)
           (-90.0 90.0)
           (-90.0 90.0)
  end
  begin
     id 19
     name lradius
     direction 1 -4.48977e-011 3.60404e-027   
     length 2.98444   
     axis -180 -30 -90   XYZ
    dof rx
    limits (-10.0 170.0)
  end
  begin
     id 20
     name lwrist
     direction 1 -4.48997e-011 7.54877e-027   
     length 1.49222   
     axis -7.18178e-015 90 90   XYZ
    dof ry
    limits (-180.0 0.0)
 end
  begin
     id 21 
     name lhand
     direction 1 -4.489e-011 1.51105e-026   
     length 0.992285   
     axis -9.63605e-015 90 90   XYZ
    dof rx rz
    limits (-90.0 90.0)
           (-45.0 45.0)
  end
  begin
     id 22 
     name lfingers
     direction 1 -4.48998e-011 3.01948e-026   
     length 0.800006   
     axis -1.92718e-014 90 90   XYZ
    dof rx
    limits (0.0 90.0)
  end
  begin
     id 23
     name lthumb
     direction 0.707107 -6.34881e-011 0.707107   
     length 1.14865   
     axis -90 45 -3.53137e-014   XYZ
    dof rx rz
    limits (-45.0 45.0)
           (-45.0 45.0)
  end
  begin
     id 24 
     name rclavicle
     direction -0.945672 0.324529 0.0196374   
     length 3.4236  
     axis 0 0 0   XYZ 
    dof ry rz
    limits (-10.0 20.0)
           (-20.0 0.0)
  end
  begin
     id 25 
     name rhumerus
     direction -1 -4.4896e-011 1.02757e-029  
     length 4.62052   
     axis -180 30 90   XYZ
    dof rx ry rz
    limits (-90.0 60.0)
           (-90.0 90.0)
           (-90.0 90.0)
  end
  begin
     id 26 
     name rradius
     direction -1 -4.48982e-011 3.85962e-027   
     length 2.95332   
     axis -180 30 90   XYZ
    dof rx
    limits (-10.0 170.0)
  end
  begin
     id 27 
     name rwrist
     direction -1 -4.48961e-011 7.55118e-027   
     length 1.47666   
     axis -7.18178e-015 -90 -90   XYZ
    dof ry
    limits (-180.0 0.0)
  end
  begin
     id 28
     name rhand
     direction -1 -4.48984e-011 1.50994e-026   
     length 0.990956   
     axis -9.63605e-015 -90 -90   XYZ
    dof rx rz
    limits (-90.0 90.0)
           (-45.0 45.0)
  end
  begin
     id 29
     name rfingers
     direction -1 -4.4892e-011 3.02158e-026   
     length 0.798934   
     axis -1.92718e-014 -90 -90   XYZ
    dof rx
    limits (0.0 90.0)
  end
  begin
     id 30
     name rthumb
     direction -0.707107 -6.34916e-011 0.707107   
     length 1.14711   
     axis -90 -45 3.53137e-014   XYZ
    dof rx rz
    limits (-45.0 45.0)
           (-45.0 45.0)
  end
:hierarchy
  begin
    root lhipjoint rhipjoint lowerback
    lhipjoint lfemur
    lfemur ltibia
    ltibia lfoot
    lfoot ltoes
    rhipjoint rfemur
    rfemur rtibia
    rtibia rfoot
    rfoot rtoes
    lowerback upperback
    upperback thorax
    thorax lowerneck lclavicle rclavicle
    lowerneck upperneck
    upperneck head
    lclavicle lhumerus
    lhumerus lradius
    lradius lwrist
    lwrist lhand lthumb
    lhand lfingers
    rclavicle rhumerus
    rhumerus rradius
    rradius rwrist
    rwrist rhand rthumb
    rhand rfingers
  end

#!OML:ASF H:\ManfredObstacles\Project 1\Capture day 1\Session 1\Male.ASF
:FULLY-SPECIFIED
:DEGREES
133
root 11.4009 16.3614 18.7733 -171.551 -12.2921 -178.369
lowerback -10.9167 -3.20012 -3.67836
upperback 2.93347 -3.8863 1.40553
thorax 9.6438 -2.14102 2.82791
lowerneck 1.88716 -1.67553 -4.709
upperneck 2.75057 -2.73264 9.51523
head 0.76151 -1.46598 3.93587
rclavicle 3.77194e-014 -6.36111e-015
rhumerus -39.5457 -29.8936 -70.5354
rradius 24.7265
rwrist 34.6651
rhand 0.0490871 -5.26951
rfingers 7.12502
rthumb 25.6374 -33.5635
lclavicle 3.77194e-014 -6.36111e-015
lhumerus -27.6607 14.8959 81.4584
lradius 19.5281
lwrist -31.4068
lhand -7.72577 7.33121
lfingers 7.12502
lthumb 18.1727 36.5023
rfemur -27.0046 -7.426 24.5499
rtibia 26.9196
rfoot -12.9416 9.85766
rtoes 26.9494
lfemur -3.66104 -6.72502 -17.0127
ltibia 32.5558
lfoot 0.822268 -9.00782
ltoes -7.7437
134
root 11.4422 16.3549 18.6111 -171.644 -12.029 -177.882
lowerback -10.6603 -2.97976 -3.19679
upperback 2.81679 -3.67876 1.51279
thorax 9.32059 -2.01253 2.72805
lowerneck 1.95523 -1.52831 -4.87481
upperneck 2.84422 -2.53565 9.41306
head 0.764601 -1.36731 3.93394
rclavicle 5.14355e-015 -8.34896e-015
rhumerus -39.0801 -28.7949 -71.2094
rradius 25.148
rwrist 33.6579
rhand -0.129206 -5.58092
rfingers 7.12502
rthumb 25.4666 -33.8994
lclavicle 5.14355e-015 -8.34896e-015
lhumerus -28.3219 15.9232 80.645
lradius 19.3656
lwrist -32.1485
lhand -8.11353 7.12882
lfingers 7.12502
lthumb 17.7996 36.3342
rfemur -26.3301 -7.74084 25.4799
rtibia 26.6685
rfoot -13.3242 10.5115
rtoes 25.9475
lfemur -5.75106 -5.76203 -16.3526
ltibia 37.1074
lfoot 1.67026 -8.00238
ltoes -10.828
135
root 11.4674 16.3538 18.4568 -171.654 -12.0142 -177.98
lowerback -10.3309 -2.91119 -3.51503
upperback 2.73254 -3.5762 1.75527
thorax 9.06781 -1.98675 3.20243
lowerneck 2.10208 -1.39192 -5.11236
upperneck 2.70932 -2.31105 8.99756
head 0.67407 -1.25181 3.83595
rclavicle 3.99557e-014 1.0138e-014
rhumerus -38.3981 -27.4963 -71.4221
rradius 25.4681
rwrist 32.939
rhand -0.279572 -5.67173
rfingers 7.12502
rthumb 25.3226 -34.0107
lclavicle 3.99557e-014 1.0138e-014
lhumerus -28.8541 17.1726 80.3181
lradius 19.1925
lwrist -32.692
lhand -8.52028 7.12746
lfingers 7.12502
lthumb 17.4082 36.3679
rfemur -25.5486 -8.64548 25.7126
rtibia 26.3883
rfoot -13.5397 11.5342
rtoes 26.3129
lfemur -8.0356 -4.93601 -16.3926
ltibia 41.7707
lfoot 2.69776 -6.80241
ltoes -13.7345
136
root 11.4964 16.3638 18.3064 -171.726 -12.0982 -177.78
lowerback -10.1473 -2.74009 -3.15483
upperback 2.75675 -3.39797 1.70563
thorax 8.94336 -1.87842 2.98674
lowerneck 2.19337 -1.29937 -4.88369
upperneck 2.49098 -2.15601 8.77162
head 0.569359 -1.17322 3.71286
rclavicle 1.1281e-014 -1.05356e-014
rhumerus -37.7804 -27.0576 -71.8644
rradius 25.7358
rwrist 32.7447
rhand -0.306981 -5.47568
rfingers 7.12502
rthumb 25.2963 -33.8184
lclavicle 1.1281e-014 -1.05356e-014
lhumerus -29.2249 17.2094 79.809
lradius 19.3116
lwrist -32.4374
lhand -8.79199 7.15152
lfingers 7.12502
lthumb 17.1467 36.4149
rfemur -24.7342 -9.04804 26.1189
rtibia 26.0105
rfoot -13.7851 12.0558
rtoes 26.9849
lfemur -10.482 -4.08011 -16.0772
ltibia 46.4324
lfoot 3.88745 -5.69325
ltoes -16.6483
137
root 11.5241 16.3735 18.1587 -171.734 -12.273 -177.628
lowerback -10.0295 -2.62961 -3.0094
upperback 2.77606 -3.28218 1.78768
thorax 8.88215 -1.81799 3.01796
lowerneck 2.11015 -1.22361 -4.8696
upperneck 2.47476 -2.0312 8.51728
head 0.565931 -1.10394 3.6203
rclavicle -9.79014e-015 8.94531e-016
rhumerus -37.0776 -26.2024 -72.27
rradius 26.1566
rwrist 32.2145
rhand -0.305365 -5.45616
rfingers 7.12502
rthumb 25.2979 -33.7986
lclavicle -9.79014e-015 8.94531e-016
lhumerus -29.604 17.3184 79.5773
lradius 19.5442
lwrist -32.1067
lhand -9.11687 7.12351
lfingers 7.12502
lthumb 16.8339 36.4138
rfemur -24.0348 -9.38054 26.4651
rtibia 25.7415
rfoot -14.2095 12.3502
rtoes 26.7239
lfemur -13.0094 -3.31622 -15.8313
ltibia 50.7488
lfoot 5.09009 -4.66979
ltoes -15.3434
138
root 11.5453 16.383 18.0158 -171.763 -12.4797 -177.6
lowerback -9.92349 -2.50027 -2.9641
upperback 2.84024 -3.127 1.86072
thorax 8.87925 -1.74516 3.10155
lowerneck 1.92466 -1.1578 -4.99178
upperneck 2.58718 -1.93065 8.34889
head 0.626598 -1.04544 3.58378
rclavicle 2.15433e-014 -5.26779e-015
rhumerus -36.417 -25.2062 -72.6138
rradius 26.7389
rwrist 31.5398
rhand -0.301353 -5.51852
rfingers 7.12502
rthumb 25.3017 -33.8604
lclavicle 2.15433e-014 -5.26779e-015
lhumerus -29.7772 17.5996 79.438
lradius 19.5714
lwrist -31.8903
lhand -9.22715 7.38419
lfingers 7.12502
lthumb 16.7278 36.6835
rfemur -23.3173 -9.8588 26.6677
rtibia 25.4651
rfoot -14.538 12.6489
rtoes 26.0779
lfemur -15.4691 -2.57526 -15.8152
ltibia 54.6159
lfoot 6.15594 -3.70493
ltoes -13.3889
139
root 11.5624 16.3907 17.8791 -171.934 -12.648 -177.425
lowerback -9.70742 -2.35177 -2.71043
upperback 2.95938 -2.98048 1.95055
thorax 8.86126 -1.66762 3.08606
lowerneck 1.7608 -1.04577 -5.17681
upperneck 2.6259 -1.76502 8.23754
head 0.656503 -0.956218 3.5802
rclavicle 6.89659e-014 -1.14301e-014
rhumerus -35.648 -24.4029 -72.8818
rradius 27.1333
rwrist 31.2091
rhand -0.356858 -5.51547
rfingers 7.12502
rthumb 25.2485 -33.8649
lclavicle 6.89659e-014 -1.14301e-014
lhumerus -29.8333 17.9637 79.2848
lradius 19.545
lwrist -31.6248
lhand -9.02427 7.80262
lfingers 7.12502
lthumb 16.9231 37.0853
rfemur -22.5448 -10.3191 26.9963
rtibia 25.2172
rfoot -14.7705 12.9334
rtoes 25.4853
lfemur -17.7937 -1.84287 -15.7009
ltibia 57.9595
lfoot 5.77226 -3.68207
ltoes -10.5356
140
root 11.582 16.3953 17.7457 -172.1 -12.7974 -177.244
lowerback -9.47025 -2.18564 -2.4769
upperback 3.03444 -2.80284 2.0077
thorax 8.78042 -1.573 3.05287
lowerneck 2.02721 -0.986767 -4.92195
upperneck 2.38802 -1.65402 7.77211
head 0.517398 -0.901198 3.37063
rclavicle 5.2181e-016 -5.2181e-015
rhumerus -34.978 -23.8711 -73.0568
rradius 27.2865
rwrist 31.0751
rhand -0.638139 -5.59367
rfingers 7.12502
rthumb 24.979 -33.9808
lclavicle 5.2181e-016 -5.2181e-015
lhumerus -29.934 18.043 79.1742
lradius 19.6107
lwrist -31.284
lhand -8.92911 8.02353
lfingers 7.12502
lthumb 17.0147 37.2984
rfemur -21.8123 -10.4588 27.2811
rtibia 25.0582
rfoot -15.2393 12.9365
rtoes 24.4202
lfemur -20.0685 -1.16828 -15.5826
ltibia 60.6949
lfoot 5.4385 -3.9303
ltoes -8.72662
141
root 11.6027 16.3935 17.6171 -172.193 -12.95 -177.122
lowerback -9.26257 -1.95444 -2.25417
upperback 3.04494 -2.52094 1.95432
thorax 8.63447 -1.42108 2.92451
lowerneck 2.53111 -0.995606 -4.27921
upperneck 2.05417 -1.63331 7.18134
head 0.309618 -0.895323 3.04844
rclavicle 6.31141e-015 -1.71949e-014
rhumerus -34.6165 -23.7485 -73.1579
rradius 27.5229
rwrist 30.9206
rhand -0.963042 -5.67873
rfingers 7.12502
rthumb 24.6676 -34.1088
lclavicle 6.31141e-015 -1.71949e-014
lhumerus -30.0148 18.0445 78.9407
lradius 19.6038
lwrist -31.2652
lhand -8.91283 7.98303
lfingers 7.12502
lthumb 17.0303 37.2565
rfemur -21.1921 -10.33 27.4779
rtibia 25.0083
rfoot -15.8121 12.6698
rtoes 23.1772
lfemur -22.297 -0.430984 -15.542
ltibia 62.7916
lfoot 4.87994 -4.17113
ltoes -6.48843
142
root 11.6141 16.386 17.4897 -172.378 -13.0277 -177.185
lowerback -8.99531 -1.6974 -2.13307
upperback 3.13266 -2.18733 1.83675
thorax 8.53829 -1.24909 2.79263
lowerneck 2.73945 -0.956893 -4.12913
upperneck 1.93108 -1.57449 7.07801
head 0.228514 -0.869202 2.98655
rclavicle 1.75179e-015 -6.95746e-016
rhumerus -34.2098 -23.7784 -73.1734
rradius 27.7654
rwrist 30.7878
rhand -1.08689 -5.64874
rfingers 7.12502
rthumb 24.5489 -34.095
lclavicle 1.75179e-015 -6.95746e-016
lhumerus -30.0967 18.1979 78.7163
lradius 19.6908
lwrist -31.413
lhand -8.72465 7.84189
lfingers 7.12502
lthumb 17.2115 37.0997
rfemur -20.52 -10.3704 27.4429
rtibia 25.1135
rfoot -17.0895 12.5142
rtoes 21.9794
lfemur -24.1705 0.348696 -15.7968
ltibia 64.2339
lfoot 4.24043 -4.20354
ltoes -4.91704
143
root 11.6164 16.3799 17.358 -172.634 -13.0886 -177.511
lowerback -8.73939 -1.54594 -2.34589
upperback 3.32779 -1.96039 1.75402
thorax 8.58966 -1.15247 2.8659
lowerneck 2.57163 -0.880409 -4.42757
upperneck 2.14539 -1.48452 7.14405
head 0.322997 -0.820814 3.06352
rclavicle -9.7156e-015 -3.47873e-015
rhumerus -33.4878 -23.4113 -73.2875
rradius 28.0613
rwrist 30.1147
rhand -0.693069 -6.15832
rfingers 7.12502
rthumb 24.9264 -34.5528
lclavicle -9.7156e-015 -3.47873e-015
lhumerus -30.1764 18.8225 78.5415
lradius 19.7691
lwrist -31.8436
lhand -8.68888 7.56257
lfingers 7.12502
lthumb 17.2459 36.8173
rfemur -19.7575 -10.556 27.073
rtibia 25.3915
rfoot -17.8196 12.5011
rtoes 21.5593
lfemur -25.6637 0.939139 -16.4055
ltibia 65.0197
lfoot 3.27629 -4.00637
ltoes -4.1428
144
root 11.6208 16.3728 17.2335 -172.688 -13.2113 -177.698
lowerback -8.6284 -1.41326 -2.40163
upperback 3.42568 -1.77347 1.67745
thorax 8.61656 -1.06444 2.8477
lowerneck 2.52895 -0.772081 -4.60421
upperneck 2.17036 -1.34009 7.16872
head 0.330715 -0.747614 3.10482
rclavicle -1.75552e-014 1.27719e-014
rhumerus -32.8775 -23.1275 -73.4847
rradius 28.4949
rwrist 29.216
rhand -0.0249724 -7.07861
rfingers 7.12502
rthumb 25.5665 -35.3828
lclavicle -1.75552e-014 1.27719e-014
lhumerus -30.2178 19.0642 78.4295
lradius 19.7731
lwrist -31.9485
lhand -8.77384 7.3999
lfingers 7.12502
lthumb 17.1641 36.6618
rfemur -19.3337 -10.4601 26.8865
rtibia 25.8179
rfoot -18.7858 12.1845
rtoes 20.316
lfemur -27.3848 1.49329 -16.8465
ltibia 65.2674
lfoot 2.13882 -3.5869
ltoes 1.29449
145
root 11.6223 16.3626 17.1141 -172.611 -13.358 -177.806
lowerback -8.55411 -1.22628 -2.22552
upperback 3.42604 -1.53062 1.5223
thorax 8.54498 -0.929622 2.62351
lowerneck 2.54617 -0.770039 -4.56015
upperneck 2.21425 -1.33907 7.13756
head 0.34098 -0.746939 3.08578
rclavicle -1.09829e-014 3.67752e-015
rhumerus -32.5349 -23.2443 -73.5369
rradius 28.6209
rwrist 29.0462
rhand 0.0772916 -6.98289
rfingers 7.12502
rthumb 25.6644 -35.273
lclavicle -1.09829e-014 3.67752e-015
lhumerus -30.297 18.295 78.5479
lradius 20.0322
lwrist -31.1853
lhand -8.59158 7.66019
lfingers 7.12502
lthumb 17.3396 36.9067
rfemur -19.1612 -10.2764 26.7943
rtibia 26.3739
rfoot -19.6752 11.8625
rtoes 19.8061
lfemur -29.2077 2.08764 -17.238
ltibia 64.9761
lfoot 0.428051 -2.81999
ltoes 1.70921
146
root 11.622 16.3484 16.9967 -172.59 -13.5967 -177.911
lowerback -8.38089 -1.09709 -2.11578
upperback 3.43743 -1.36534 1.42355
thorax 8.43891 -0.838792 2.48502
lowerneck 2.4328 -0.810745 -4.55108
upperneck 2.42423 -1.39872 7.03365
head 0.430221 -0.77313 3.04766
rclavicle 4.07509e-015 -3.32964e-015
rhumerus -32.2069 -23.0585 -73.5758
rradius 28.5694
rwrist 29.132
rhand -0.371808 -6.00181
rfingers 7.12502
rthumb 25.2342 -34.3532
lclavicle 4.07509e-015 -3.32964e-015
lhumerus -30.392 17.5622 78.7666
lradius 20.3876
lwrist -30.4019
lhand -8.38281 7.94551
lfingers 7.12502
lthumb 17.5405 37.1742
rfemur -18.965 -10.1318 26.6974
rtibia 26.9799
rfoot -20.564 11.4161
rtoes 19.4518
lfemur -30.8531 2.50505 -17.5947
ltibia 64.1959
lfoot -0.862927 -1.4831
ltoes 0.626429
147
root 11.619 16.3272 16.8784 -172.607 -13.8769 -177.999
lowerback -8.21118 -0.964807 -2.02449
upperback 3.45599 -1.19649 1.35351
thorax 8.34501 -0.748744 2.38726
lowerneck 2.40635 -0.795692 -4.55054
upperneck 2.47045 -1.37448 6.91719
head 0.446955 -0.758945 3.00754
rclavicle -3.04389e-014 1.05853e-014
rhumerus -32.0973 -22.7697 -73.59
rradius 28.7305
rwrist 29.2887
rhand -0.874217 -5.03268
rfingers 7.12502
rthumb 24.7528 -33.4511
lclavicle -3.04389e-014 1.05853e-014
lhumerus -30.3697 17.0704 78.9812
lradius 20.5059
lwrist -29.9452
lhand -8.32872 8.02293
lfingers 7.12502
lthumb 17.5925 37.247
rfemur -18.7214 -10.125 26.6274
rtibia 27.5561
rfoot -21.4539 11.0231
rtoes 18.7114
lfemur -32.2452 2.83286 -17.9058
ltibia 62.9108
lfoot -1.90181 -0.44231
ltoes -0.801513
